<?xml version="1.0" encoding="utf-8"?>
<!-- Generator: Adobe Illustrator 17.1.0, SVG Export Plug-In . SVG Version: 6.00 Build 0)  -->
<!DOCTYPE svg PUBLIC "-//W3C//DTD SVG 1.1//EN" "http://www.w3.org/Graphics/SVG/1.1/DTD/svg11.dtd" [
	<!ENTITY ns_flows "http://ns.adobe.com/Flows/1.0/">
	<!ENTITY ns_extend "http://ns.adobe.com/Extensibility/1.0/">
	<!ENTITY ns_ai "http://ns.adobe.com/AdobeIllustrator/10.0/">
	<!ENTITY ns_graphs "http://ns.adobe.com/Graphs/1.0/">
]>
<svg version="1.1" id="Layer_1" xmlns:x="&ns_extend;" xmlns:i="&ns_ai;" xmlns:graph="&ns_graphs;"
	 xmlns="http://www.w3.org/2000/svg" xmlns:xlink="http://www.w3.org/1999/xlink" xmlns:a="http://ns.adobe.com/AdobeSVGViewerExtensions/3.0/"
	 x="0px" y="0px" viewBox="0 0 130.79 242.425" enable-background="new 0 0 130.79 242.425" xml:space="preserve">
<path fill="#FFFFFF" d="M69.11,16.873l6.484-13.806c0.189-0.41,0.014-0.894-0.391-1.087L71.15,0.079
	c-0.405-0.193-0.889-0.018-1.082,0.391l-4.328,9.224c-0.189,0.41-0.502,0.41-0.691,0L60.72,0.47
	c-0.189-0.41-0.677-0.585-1.082-0.391l-4.052,1.902c-0.405,0.193-0.58,0.677-0.387,1.087l6.479,13.806
	c0.194,0.41,0.194,1.069,0,1.478L0.237,149.268C0.048,149.673,0.255,150,0.703,150h129.383c0.446,0,0.658-0.327,0.465-0.732
	L69.11,18.352C68.922,17.942,68.922,17.283,69.11,16.873z M67.568,82.771l4.301,4.596c0.304,0.327,0.801,0.327,1.105,0l6.162-6.585
	c0.304-0.327,0.806-0.327,1.11,0l6.157,6.585c0.313,0.327,0.806,0.327,1.114,0l4.264-4.568c0.309-0.323,0.709-0.258,0.903,0.147
	l28.261,60.215c0.189,0.406-0.018,0.737-0.465,0.737H91.845c-0.446,0-1.124-0.18-1.51-0.415
	c-21.34-12.921-23.394-46.999-23.329-60.492C67.006,82.541,67.263,82.445,67.568,82.771z M65.739,25.535l24.393,51.968
	c0.193,0.41,0.097,1.004-0.212,1.336l-2.404,2.574c-0.308,0.323-0.801,0.323-1.114,0l-6.157-6.585c-0.304-0.327-0.806-0.327-1.11,0
	l-6.162,6.585c-0.304,0.323-0.801,0.323-1.11,0l-6.157-6.585c-0.308-0.327-0.806-0.327-1.114,0l-6.157,6.585
	c-0.308,0.323-0.806,0.323-1.11,0l-6.162-6.585c-0.304-0.327-0.801-0.327-1.11,0l-6.157,6.585c-0.304,0.323-0.801,0.323-1.114,0
	l-2.077-2.233c-0.309-0.327-0.401-0.921-0.212-1.327l24.554-52.318C65.237,25.13,65.55,25.13,65.739,25.535z M38.841,83.149
	l3.942,4.218c0.313,0.327,0.811,0.327,1.114,0l6.157-6.585c0.308-0.327,0.806-0.327,1.11,0l6.162,6.585
	c0.304,0.327,0.801,0.327,1.11,0l3.104-3.316c0.304-0.332,0.497-0.235,0.429,0.207l-9.371,58.834
	c-0.069,0.447-0.493,0.806-0.94,0.806H10.313c-0.451,0-0.659-0.332-0.47-0.737l28.096-59.865
	C38.132,82.891,38.537,82.826,38.841,83.149z"/>
<g>
	<path fill="#FFFFFF" d="M21.764,185.745c-2.811,0.018-5.623,0.038-8.434,0.06c-0.012,18.371-0.023,36.743-0.035,55.114
		c-1.6,0.16-3.198,0.328-4.797,0.504c0.008-18.526,0.017-37.053,0.025-55.579c-2.841,0.024-5.683,0.05-8.524,0.077
		c0-1.572,0-3.145,0-4.717c7.256,0,14.512,0,21.768,0C21.766,182.718,21.765,184.231,21.764,185.745z"/>
	<path fill="#FFFFFF" d="M46.132,238.667c0.012-19.154,0.023-38.309,0.035-57.463c1.572,0,3.144,0,4.716,0
		c-0.009,19.103-0.018,38.207-0.027,57.31C49.281,238.558,47.706,238.609,46.132,238.667z"/>
	<path fill="#FFFFFF" d="M82.827,213.603c0.005,8.333,0.009,16.667,0.014,25c-1.574-0.053-3.149-0.098-4.724-0.137
		c-0.008-19.087-0.016-38.175-0.024-57.262c3.477,0,6.953,0,10.43,0c6.984-0.017,12.703,5.426,12.709,12.101
		c0.003,2.91,0.005,5.82,0.007,8.729c0.006,6.677-5.704,11.884-12.693,11.694C86.64,213.681,84.733,213.639,82.827,213.603z
		 M88.542,209.289c4.447,0.102,7.983-3.143,7.979-7.363c-0.002-2.895-0.005-5.789-0.007-8.684c-0.003-4.22-3.544-7.589-7.988-7.599
		c-1.905-0.006-3.81-0.012-5.714-0.017c0.004,7.851,0.009,15.703,0.013,23.554C84.731,209.212,86.637,209.248,88.542,209.289z"/>
	<path fill="#FFFFFF" d="M126.09,241.854c-0.005-20.217-0.011-40.433-0.017-60.65c1.572,0,3.144,0,4.716,0
		c0,20.407,0,40.814,0,61.222C129.224,242.228,127.657,242.037,126.09,241.854z"/>
</g>
<g>
</g>
<g>
</g>
<g>
</g>
<g>
</g>
<g>
</g>
<g>
</g>
<g>
</g>
<g>
</g>
<g>
</g>
<g>
</g>
<g>
</g>
<g>
</g>
<g>
</g>
<g>
</g>
<g>
</g>
</svg>
